HIERARCHY
ROOT Hips
{
	OFFSET 0.00000 0.00000 0.00000
	CHANNELS 6 Xposition Yposition Zposition Zrotation Yrotation Xrotation 
	JOINT LHipJoint
	{
		OFFSET 0 0 0
		CHANNELS 3 Zrotation Yrotation Xrotation
		JOINT LeftHip
		{
			OFFSET 1.40001 -1.72600 0.84541
			CHANNELS 3 Zrotation Yrotation Xrotation
			JOINT LeftKnee
			{
				OFFSET 2.34760 -6.44999 0.00000
				CHANNELS 3 Zrotation Yrotation Xrotation
				JOINT LeftAnkle
				{
					OFFSET 2.50650 -6.88655 0.00000
					CHANNELS 3 Zrotation Yrotation Xrotation
					JOINT LeftToe
					{
						OFFSET 0.12464 -0.34243 1.95563
						CHANNELS 3 Zrotation Yrotation Xrotation
						End Site
						{
							OFFSET 0.00000 -0.00000 1.00479
						}
					}
				}
			}
		}
	}
	JOINT RHipJoint
	{
		OFFSET 0 0 0
		CHANNELS 3 Zrotation Yrotation Xrotation
		JOINT RightHip
		{
			OFFSET -1.40958 -1.72600 0.84541
			CHANNELS 3 Zrotation Yrotation Xrotation
			JOINT RightKnee
			{
				OFFSET -2.37905 -6.53640 0.00000
				CHANNELS 3 Zrotation Yrotation Xrotation
				JOINT RightAnkle
				{
					OFFSET -2.50470 -6.88163 0.00000
					CHANNELS 3 Zrotation Yrotation Xrotation
					JOINT RightToe
					{
						OFFSET -0.12236 -0.33619 1.81785
						CHANNELS 3 Zrotation Yrotation Xrotation
						End Site
						{
							OFFSET -0.00000 -0.00000 0.93746
						}
					}
				}
			}
		}
	}
	JOINT lowerback
	{
		OFFSET 0 0 0
		CHANNELS 3 Zrotation Yrotation Xrotation
		JOINT Chest
		{
			OFFSET -0.02146 1.96915 0.26424
			CHANNELS 3 Zrotation Yrotation Xrotation
			JOINT Chest2
			{
				OFFSET 0.01522 1.99484 0.02086
				CHANNELS 3 Zrotation Yrotation Xrotation
				JOINT lowerneck
				{
					OFFSET 0 0 0
					CHANNELS 3 Zrotation Yrotation Xrotation
					JOINT Neck
					{
						OFFSET -0.02954 1.71757 0.03505
						CHANNELS 3 Zrotation Yrotation Xrotation
						JOINT Head
						{
							OFFSET 0.04170 1.65781 -0.11024
							CHANNELS 3 Zrotation Yrotation Xrotation
							End Site
							{
								OFFSET 0.01600 1.81465 -0.05144
							}
						}
					}
				}
				JOINT LeftCollar
				{
					OFFSET 0 0 0
					CHANNELS 3 Zrotation Yrotation Xrotation
					JOINT LeftShoulder
					{
						OFFSET 2.77679 1.60868 -0.78649
CHANNELS 3 Zrotation Xrotation Yrotation
						JOINT LeftElbow
						{
OFFSET 0 -4.626720 -0.000000
CHANNELS 3 Zrotation Xrotation Yrotation
							JOINT LeftWrist
							{
OFFSET 0 -3.110180 -0.000000
CHANNELS 3 Zrotation Xrotation Yrotation
								JOINT lhand
								{
									OFFSET 0 0 0
CHANNELS 3 Zrotation Xrotation Yrotation
									JOINT LFingers
									{
OFFSET 0 -0.743830 -0.000000
CHANNELS 3 Zrotation Xrotation Yrotation
										End Site
										{
OFFSET 0 -0.599700 -0.000000
										}
									}
								}
								JOINT LThumb
								{
OFFSET 0 0.000000 0.000000
CHANNELS 3 Zrotation Xrotation Yrotation
									End Site
									{
OFFSET 0 -0.608850 0.608850
									}
								}
							}
						}
					}
				}
				JOINT RightCollar
				{
					OFFSET 0 0 0
					CHANNELS 3 Zrotation Yrotation Xrotation
					JOINT RightShoulder
					{
						OFFSET -2.73247 1.63658 -0.74740
CHANNELS 3 Zrotation Xrotation Yrotation
						JOINT RightElbow
						{
OFFSET 0 -4.559190 -0.000000
CHANNELS 3 Zrotation Xrotation Yrotation
							JOINT RightWrist
							{
OFFSET 0 -3.227480 -0.000000
CHANNELS 3 Zrotation Xrotation Yrotation
								JOINT rhand
								{
									OFFSET 0 0 0
CHANNELS 3 Zrotation Xrotation Yrotation
									JOINT RFingers
									{
OFFSET 0 -0.700880 -0.000000
CHANNELS 3 Zrotation Xrotation Yrotation
										End Site
										{
OFFSET 0 -0.565070 -0.000000
										}
									}
								}
								JOINT RThumb
								{
OFFSET 0 0.000000 0.000000
CHANNELS 3 Zrotation Xrotation Yrotation
									End Site
									{
OFFSET 0 -0.573700 0.573700
									}
								}
							}
						}
					}
				}
			}
		}
	}
}
MOTION
Frames: 16
Frame Time: .0083333
-1.6892 16.3993 -45.0102 -0.4156 0.2509 16.8906 0.0000 0.0000 0.0000 -16.1824 -10.2052 -47.4743 6.6008 14.9863 47.3480 0.3394 2.2279 -12.0500 0.0527 -1.4817 -4.0752 0.0000 0.0000 0.0000 22.5793 0.4904 -22.2110 -3.1542 -10.9405 32.0795 -1.9008 14.0849 -25.1984 -0.2232 3.0409 -8.3928 1.5514 0.8041 -14.8309 1.0145 0.7944 -4.6906 0.3241 0.3970 3.3565 1.5192 -1.2015 -3.0998 -4.5787 -1.3571 7.5519 -1.8001 -0.7873 2.9191 -0.0000 -0.0000 0.0000 0.811 13.1455 -26.0869 10.3871 -17.3428 1.5884 8.625 13.5698 16.9898 0.0 0.0 0.0 -7.1250 0.0 0.0 -12.7326 13.1098 -9.7622 -0.0000 -0.0000 0.0000 -2.7852 -2.5778 28.4198 -21.1464 -31.9988 -6.1273 -18.683 1.559 33.3036 0.0 0.0 0.0 7.1250 0.0 -0.0 17.2986 63.9174 -8.0499
-1.6782 16.4010 -44.7947 -0.3952 0.0744 16.8761 0.0000 0.0000 0.0000 -16.0838 -10.3387 -47.4873 5.7884 14.2201 44.1266 0.3309 2.4150 -12.0252 0.0436 -1.3481 -3.7072 0.0000 0.0000 0.0000 22.5656 -0.4930 -21.1731 -2.9842 -10.6695 31.1732 -1.8627 14.9281 -25.1174 -0.2199 3.0190 -8.3315 1.3958 0.8088 -15.6507 1.0578 0.7909 -4.0502 0.4753 0.3996 4.4701 1.3549 -1.0569 -3.6049 -4.4812 -1.1770 7.0830 -1.7321 -0.7004 2.8618 -0.0000 -0.0000 0.0000 0.3895 12.9676 -24.4535 9.8998 -16.5826 1.4462 8.032 15.154 18.074 0.0 0.0 0.0 -7.1250 0.0 0.0 -13.0971 12.0882 -10.3444 -0.0000 -0.0000 0.0000 -3.2471 -4.4239 29.3458 -21.9601 -32.9319 -6.5642 -18.3028 0.3836 32.9918 0.0 0.0 0.0 7.1250 0.0 -0.0 17.4545 63.5204 -7.9628
-1.6683 16.4033 -44.5850 -0.5068 -0.1990 16.8653 0.0000 0.0000 0.0000 -15.7859 -10.4516 -47.4839 5.0073 13.3920 40.8542 0.3053 2.9114 -11.9221 0.0626 -1.6139 -4.4396 0.0000 0.0000 0.0000 22.6410 -1.3468 -20.1368 -2.8221 -10.4014 30.2866 -1.8065 15.6934 -24.9339 -0.2354 3.1225 -8.6200 1.3224 0.8842 -15.7299 1.1353 0.8938 -3.9390 0.6209 0.4500 4.6284 1.2913 -1.0625 -3.5742 -4.5795 -1.1824 6.8194 -1.7484 -0.7053 2.7670 -0.0000 -0.0000 0.0000 0.00879999999999 13.556 -23.5192 9.5071 -15.9649 1.3362 7.864 16.4748 17.7511 0.0 0.0 0.0 -7.1250 0.0 0.0 -13.2127 12.417 -10.3481 -0.0000 -0.0000 0.0000 -3.7278 -5.9957 30.348 -22.3693 -33.3919 -6.788 -18.0242 -0.9997 32.7874 0.0 0.0 0.0 7.1250 0.0 -0.0 17.5910 63.2533 -7.917
-1.6575 16.3993 -44.3742 -0.6583 -0.4952 16.9182 0.0000 0.0000 0.0000 -15.3984 -10.6011 -47.4458 4.2533 12.4900 37.4883 0.2542 3.7646 -11.6728 0.1349 -2.3677 -6.5230 0.0000 0.0000 0.0000 22.7183 -2.2562 -19.1460 -2.6574 -10.1187 29.3619 -1.7236 16.5701 -24.6369 -0.2490 3.2109 -8.8665 1.2309 0.9888 -15.6297 1.2376 1.0460 -4.1308 0.8054 0.5238 4.3679 1.1325 -1.0965 -3.2254 -4.5348 -1.2193 6.8777 -1.7024 -0.7230 2.7204 0.0000 -0.0000 0.0000 -0.3486 14.7291 -23.3444 9.3460 -15.7101 1.2922 7.2706 17.7137 15.2383 0.0 0.0 0.0 -7.1250 0.0 0.0 -13.6811 14.9143 -9.9927 0.0000 -0.0000 0.0000 -4.333 -7.3813 31.5882 -22.2106 -33.2143 -6.7009 -18.2479 -1.9054 33.9079 0.0 0.0 0.0 7.1250 0.0 -0.0 18.3509 64.3701 -8.749
-1.6438 16.3932 -44.1611 -0.7743 -0.8796 17.0132 0.0000 0.0000 0.0000 -15.0314 -10.6909 -47.3612 3.5443 11.5280 34.0819 0.2074 4.3769 -11.3432 0.1123 -2.1604 -5.9490 0.0000 0.0000 0.0000 22.6785 -2.9945 -18.1557 -2.5088 -9.8539 28.5048 -1.6355 17.4808 -24.3472 -0.2306 3.0910 -8.5323 1.4756 1.1437 -16.2942 1.0752 1.1986 -3.8471 0.5433 0.6018 5.0338 1.0487 -0.9877 -3.0973 -4.1749 -1.1022 6.5990 -1.5596 -0.6516 2.6065 0.0000 0.0000 0.0000 -0.4275 15.1165 -21.6943 8.9664 -15.1068 1.1913 8.703 19.4837 16.2228 0.0 0.0 0.0 -7.1250 0.0 0.0 -12.6993 13.8587 -9.5295 0.0000 0.0000 0.0000 -4.2859 -8.0831 32.025 -23.3791 -34.5007 -7.3519 -18.1222 -1.9415 33.9505 0.0 0.0 0.0 7.1250 0.0 -0.0 18.5348 64.3757 -8.842
-1.6316 16.3844 -43.9457 -1.0259 -1.5294 17.0167 0.0000 0.0000 0.0000 -14.5101 -10.5447 -47.1126 2.8935 10.5206 30.6797 0.1743 4.8213 -11.1295 0.0437 -1.3485 -3.7084 0.0000 0.0000 0.0000 22.6837 -3.1912 -16.8962 -2.3644 -9.5871 27.6497 -1.5553 18.0289 -24.0237 -0.2299 3.0865 -8.5196 1.4360 1.3061 -16.2046 1.2463 1.4102 -3.8315 0.7876 0.7047 4.9972 0.7913 -0.8997 -3.2592 -4.2295 -0.9644 6.6243 -1.5303 -0.5931 2.6495 -0.0000 -0.0000 0.0000 -1.1353 15.9205 -19.0818 8.5473 -14.4361 1.0845 8.734 22.8041 16.659 0.0 0.0 0.0 -7.1250 0.0 0.0 -12.6683 13.4275 -9.6234 -0.0000 -0.0000 0.0000 -4.8558 -8.6866 32.9543 -24.3026 -35.4826 -7.8815 -18.407 -1.9512 34.0548 0.0 0.0 0.0 7.1250 0.0 -0.0 18.3084 64.5514 -8.8051
-1.6286 16.3591 -43.7501 -1.2663 -1.6841 17.1823 0.0000 0.0000 0.0000 -13.8284 -10.7769 -47.1043 2.3190 9.5012 27.3761 0.0952 5.4386 -10.1674 0.1235 -2.2655 -6.2401 0.0000 0.0000 0.0000 22.8619 -3.4787 -15.8790 -2.2190 -9.3082 26.7641 -1.4971 18.2263 -23.7314 -0.2597 3.2783 -9.0547 1.2782 1.3168 -15.8830 1.4442 1.4513 -4.0742 1.0812 0.7232 4.5577 0.7806 -0.8762 -3.1692 -4.4736 -0.9160 6.6321 -1.6058 -0.5761 2.6373 0.0000 -0.0000 0.0000 -1.6482 19.0675 -18.5845 9.4952 -15.9461 1.3329 7.861 22.9506 16.1569 0.0 0.0 0.0 -7.1250 0.0 0.0 -13.2572 13.9792 -9.9369 0.0000 -0.0000 0.0000 -5.369 -9.3145 33.6696 -25.0374 -36.2422 -8.312 -18.3286 -2.4044 34.0886 0.0 0.0 0.0 7.1250 0.0 -0.0 18.4306 64.5618 -8.8703
-1.6078 16.3372 -43.5265 -1.5016 -2.1143 17.1313 0.0000 0.0000 0.0000 -13.2932 -10.7711 -46.7528 1.8306 8.5039 24.2555 0.0246 6.1370 -9.3888 0.2958 -3.4974 -9.6668 0.0000 0.0000 0.0000 22.8264 -4.3505 -14.7175 -2.0668 -9.0038 25.8072 -1.3711 19.2206 -23.3005 -0.2768 3.3839 -9.3494 1.5950 1.5163 -16.8677 1.3788 1.6269 -3.4876 0.9078 0.8126 5.7206 0.9682 -0.8100 -3.1699 -4.5585 -0.8505 6.1260 -1.6571 -0.5358 2.4706 0.0000 0.0000 0.0000 -1.9481 16.6867 -14.7117 7.9816 -13.5231 0.9478 7.5038 26.4928 16.0217 0.0 0.0 0.0 -7.1250 0.0 0.0 -13.4974 14.1341 -10.0819 0.0000 0.0000 0.0000 -5.5584 -10.9909 34.1048 -25.6203 -36.8313 -8.659 -18.385 -2.7715 34.4548 0.0 0.0 0.0 7.1250 0.0 -0.0 18.7211 64.9201 -9.1702
-1.5840 16.3296 -43.3060 -1.6204 -2.4527 17.1022 0.0000 0.0000 0.0000 -12.9705 -10.7672 -46.3855 1.4220 7.5411 21.3287 0.0597 6.0181 -10.0617 0.1214 -2.2463 -6.1868 0.0000 0.0000 0.0000 22.6603 -5.0945 -13.5853 -1.9178 -8.6927 24.8388 -1.2390 19.9774 -22.7787 -0.3056 3.5541 -9.8254 1.7804 1.6676 -17.0990 1.3177 1.7885 -3.3927 0.7822 0.8948 5.9539 1.0310 -0.7572 -3.1118 -4.5827 -0.7817 6.1308 -1.6734 -0.5002 2.4638 0.0000 0.0000 0.0000 -2.2019 19.6579 -15.0106 8.8760 -14.9626 1.1679 7.7971 25.4145 15.8289 0.0 0.0 0.0 -7.1250 0.0 0.0 -13.3101 14.3046 -9.8841 0.0000 0.0000 0.0000 -5.7951 -11.7827 34.5317 -26.2871 -37.4908 -9.0618 -18.9993 -2.5934 35.2462 0.0 0.0 0.0 7.1250 0.0 -0.0 18.8117 65.8316 -9.6112
-1.5739 16.3264 -43.0904 -1.6041 -3.1347 17.2742 0.0000 0.0000 0.0000 -13.1824 -9.9467 -46.5604 1.1021 6.6706 18.7432 0.1226 5.2575 -10.5483 0.0368 -1.2383 -3.4048 0.0000 0.0000 0.0000 22.3253 -5.1478 -12.3743 -1.7593 -8.3457 23.7690 -1.1355 20.3615 -22.2985 -0.3316 3.7007 -10.2361 1.5680 1.9092 -16.9383 1.1879 2.1613 -3.6232 0.8345 1.0741 5.6189 1.1308 -0.7489 -3.1186 -4.5331 -0.7721 6.3297 -1.6777 -0.4938 2.5315 -0.0000 0.0000 0.0000 -2.446 18.136 -10.0794 7.3307 -12.4622 0.8015 8.075 29.4141 16.0032 0.0 0.0 0.0 -7.1250 0.0 0.0 -13.1206 14.1161 -9.7895 -0.0000 0.0000 0.0000 -5.9605 -12.1541 34.8765 -26.8850 -38.0693 -9.4281 -19.5685 -2.6237 35.4336 0.0 0.0 0.0 7.1250 0.0 -0.0 18.3402 66.1699 -9.5053
-1.5583 16.3156 -42.8600 -1.5062 -4.2279 17.3099 0.0000 0.0000 0.0000 -13.5524 -8.9186 -46.6168 0.8552 5.8977 16.4879 0.1347 4.8680 -10.3980 0.0139 -0.7615 -2.0928 0.0000 0.0000 0.0000 21.6760 -4.8800 -10.8185 -1.6124 -8.0073 22.7361 -1.0302 20.7551 -21.8147 -0.3250 3.6642 -10.1338 1.3604 2.2605 -16.5674 0.9720 2.6864 -3.9128 0.8116 1.3301 5.1116 1.1473 -0.6535 -2.9863 -4.3814 -0.6520 6.4177 -1.6270 -0.4285 2.5397 -0.0000 -0.0000 0.0000 -2.6384 19.1999 -7.5537 7.1181 -12.1135 0.7562 7.4553 30.9855 15.4225 0.0 0.0 0.0 -7.1250 0.0 0.0 -13.5512 14.7233 -9.9492 -0.0000 -0.0000 0.0000 -6.0615 -12.3022 35.376 -27.3487 -38.5097 -9.7155 -19.6614 -3.2527 34.6557 0.0 0.0 0.0 7.1250 0.0 -0.0 17.4373 65.466 -8.7425
-1.5377 16.2974 -42.6367 -1.5386 -4.8122 17.2916 0.0000 0.0000 0.0000 -13.5963 -8.4423 -46.5206 0.6544 5.1745 14.4070 0.1636 4.1459 -10.3066 0.0017 -0.2664 -0.7318 0.0000 0.0000 0.0000 21.2750 -4.7912 -9.3276 -1.4896 -7.7103 21.8376 -0.9356 20.9209 -21.2970 -0.3517 3.8102 -10.5432 1.2929 2.4295 -16.7187 0.9361 2.9168 -3.7719 0.8706 1.4418 5.3411 1.1460 -0.5540 -3.1428 -4.4172 -0.5240 6.1900 -1.6332 -0.3653 2.4970 0.0000 0.0000 0.0000 -3.065 19.5736 -4.8879 6.9182 -11.7846 0.7148 7.9325 32.2057 15.294 0.0 0.0 0.0 -7.1250 0.0 0.0 -13.2387 14.8206 -9.6781 0.0000 0.0000 0.0000 -6.2682 -13.1579 35.6763 -27.8015 -38.9328 -9.9987 -19.0239 -3.3545 34.2109 0.0 0.0 0.0 7.1250 0.0 -0.0 17.7472 64.8682 -8.6573
-1.5168 16.2731 -42.4180 -1.5923 -4.9428 17.4160 0.0000 0.0000 0.0000 -13.8416 -7.9755 -46.7315 0.4949 4.5104 12.5172 0.2218 2.4174 -10.1254 0.0056 -0.4822 -1.3251 0.0000 0.0000 0.0000 21.0502 -5.0801 -8.2668 -1.3920 -7.4643 21.0984 -0.8326 21.1342 -20.7439 -0.4050 4.0855 -11.3173 1.2418 2.4995 -16.3253 0.9120 3.0321 -4.0905 0.8696 1.4997 4.7897 1.1816 -0.5670 -3.3225 -4.4512 -0.5298 6.5203 -1.6576 -0.3737 2.6407 -0.0000 -0.0000 0.0000 -3.398 20.6785 -2.7366 6.8527 -11.6765 0.7015 7.5853 33.2403 15.1813 0.0 0.0 0.0 -7.1250 0.0 0.0 -13.4740 14.9517 -9.8213 -0.0000 -0.0000 0.0000 -6.3771 -13.2834 35.5785 -28.4778 -39.5524 -10.4265 -18.5799 -2.3749 34.4707 0.0 0.0 0.0 7.1250 0.0 -0.0 18.5124 64.9891 -9.0941
-1.4999 16.2528 -42.1979 -1.5387 -5.2132 17.5823 0.0000 0.0000 0.0000 -14.2069 -7.4811 -46.9785 0.3712 3.9135 10.8335 0.1753 1.3017 -8.4968 0.3915 -4.0178 -11.1267 0.0000 0.0000 0.0000 20.6808 -5.1373 -7.2852 -1.3179 -7.2709 20.5205 -0.7063 21.3549 -20.0388 -0.4029 4.0749 -11.2876 1.1306 2.5668 -17.1773 0.8264 3.1217 -3.7111 0.9130 1.5387 5.6496 1.1340 -0.5852 -3.3898 -4.3919 -0.5656 6.2164 -1.6272 -0.3885 2.5500 0.0000 0.0000 0.0000 -3.7044 20.6861 -0.2572 6.7016 -11.4271 0.6713 7.556 34.4954 15.2191 0.0 0.0 0.0 -7.1250 0.0 0.0 -13.4920 14.9165 -9.8457 0.0000 0.0000 0.0000 -6.48 -14.4053 35.6132 -28.8603 -39.8962 -10.671 -19.1063 -1.5595 34.4162 0.0 0.0 0.0 7.1250 0.0 -0.0 17.8500 65.0846 -8.7983
-1.4824 16.2314 -41.9822 -1.4516 -5.4330 17.6728 0.0000 0.0000 0.0000 -14.4097 -7.2305 -46.9812 0.2762 3.3803 9.3395 0.1511 0.3349 -7.4702 0.5967 -4.9450 -13.7519 0.0000 0.0000 0.0000 20.2986 -4.9985 -6.2545 -1.2665 -7.1334 20.1111 -0.6275 21.2525 -19.4670 -0.4484 4.2961 -11.9113 0.8007 2.6234 -16.7986 0.8017 3.2654 -3.9930 1.0752 1.6085 5.1286 0.9542 -0.6159 -3.4152 -4.2618 -0.5952 6.4925 -1.5579 -0.4066 2.6454 0.0000 0.0000 0.0000 -4.0409 21.4201 2.3612 6.4455 -11.0031 0.6214 8.059 35.745 15.1304 0.0 0.0 0.0 -7.1250 0.0 0.0 -13.1603 14.9733 -9.5733 0.0000 0.0000 0.0000 -6.7508 -14.5874 35.6285 -29.2062 -40.2032 -10.8936 -19.564 -1.4425 34.7492 0.0 0.0 0.0 7.1250 0.0 -0.0 17.6442 65.5266 -8.8738
-1.4603 16.2014 -41.7565 -1.3993 -5.4697 17.7066 0.0000 0.0000 0.0000 -14.6085 -7.1874 -46.8508 0.2095 2.9470 8.1314 0.1450 -0.6620 -6.9873 0.7035 -5.3611 -14.9415 0.0000 0.0000 0.0000 19.9767 -5.0999 -5.3055 -1.2389 -7.0581 19.8875 -0.6073 21.0431 -19.2204 -0.6165 5.0251 -13.9803 0.7776 2.6174 -17.1423 0.6829 3.2615 -3.7653 0.9866 1.6036 5.5615 0.8799 -0.4777 -3.7501 -3.9861 -0.4294 6.2974 -1.4501 -0.3189 2.6458 0.0000 0.0000 0.0000 -4.2707 21.3913 5.1738 6.2070 -10.607 0.5768 8.6778 36.6913 16.1566 0.0 0.0 0.0 -7.1250 0.0 0.0 -12.7176 13.9256 -9.5254 0.0000 0.0000 0.0000 -6.8399 -15.5002 35.7455 -29.4460 -40.4138 -11.0487 -19.6261 -2.1095 34.364 0.0 0.0 0.0 7.1250 0.0 -0.0 17.1943 65.1805 -8.5041
